# xmcd
#
# Track frame offsets: 
#        150
#        14085
#        24287
#        34378
#        50920
#        60146
#        71566
#        82237
#        94526
#        112778
#        125980
#        138167
#        158249
#        171694
#        180868
#
# Disc length: 2626 seconds
#
# Revision: 0
# Processed by: cddbd v1.5.1PL0 Copyright (c) Steve Scherf et al.
# Submitted via: ExactAudioCopy v0.90b4
#
DISCID=cc0a400f
DTITLE=S.A.M. - S.A.M.
DYEAR=1900
DGENRE=Bluegrass
TTITLE0=Why Not Me
TTITLE1=Letni plan
TTITLE2=Riverboat Fantasy
TTITLE3=Going Once Going Twice
TTITLE4=Dnesnim dnem
TTITLE5=Bila plan
TTITLE6=Teach Your Children
TTITLE7=Make Me Stop To Wonder Why
TTITLE8=Vys ke hvezdam
TTITLE9=Backstage
TTITLE10=Last Thing On My Mind
TTITLE11=He Walked All The Way Home
TTITLE12=Navraty
TTITLE13=Shut The Do
TTITLE14=When You Say Nothing At All
EXTD=
EXTT0=
EXTT1=
EXTT2=
EXTT3=
EXTT4=
EXTT5=
EXTT6=
EXTT7=
EXTT8=
EXTT9=
EXTT10=
EXTT11=
EXTT12=
EXTT13=
EXTT14=
PLAYORDER=
